<?xml version="1.0" standalone="no"?>
<!DOCTYPE svg PUBLIC "-//W3C//DTD SVG 20010904//EN"
 "http://www.w3.org/TR/2001/REC-SVG-20010904/DTD/svg10.dtd">
<svg version="1.0" xmlns="http://www.w3.org/2000/svg"
 width="240.000000pt" height="240.000000pt" viewBox="0 0 240.000000 240.000000"
 preserveAspectRatio="xMidYMid meet">
<metadata>
Created by potrace 1.14, written by Peter Selinger 2001-2017
</metadata>
<g transform="translate(0.000000,240.000000) scale(0.100000,-0.100000)"
fill="#000000" stroke="none">
<path d="M800 2313 c-69 -5 -84 -10 -117 -40 -77 -70 -127 -108 -144 -108 -10
0 -22 -5 -26 -9 -5 -5 -1 -6 7 -2 8 4 6 0 -4 -8 -11 -9 -23 -16 -28 -16 -4 0
-8 -7 -8 -16 0 -9 -5 -12 -12 -8 -9 5 -9 2 1 -9 8 -10 9 -17 3 -17 -6 0 -9 -9
-7 -20 2 -11 0 -22 -5 -25 -4 -3 -2 -28 5 -55 7 -28 14 -53 14 -55 0 -3 8 -21
16 -41 8 -20 13 -39 11 -43 -2 -3 2 -12 10 -19 13 -12 18 -8 15 12 -1 5 5 6
12 3 11 -4 13 0 10 14 -3 11 1 21 11 25 9 3 13 10 10 15 -3 5 1 9 8 9 9 0 9 3
-2 10 -10 6 -11 10 -2 10 6 0 12 7 12 15 0 9 9 15 23 15 16 0 18 -3 9 -9 -8
-4 -14 -12 -14 -16 0 -4 6 -12 14 -16 11 -7 11 -9 -1 -9 -10 0 -11 -3 -2 -13
6 -8 8 -17 4 -21 -9 -9 -13 -36 -5 -36 12 0 18 -114 10 -177 -2 -12 -16 -38
-33 -59 -16 -21 -29 -44 -27 -52 2 -8 -1 -11 -8 -7 -9 6 -9 2 -1 -13 8 -15 8
-23 -1 -28 -7 -5 -8 -3 -3 6 5 8 4 11 -2 7 -6 -4 -8 -19 -5 -33 3 -19 1 -25
-6 -20 -8 5 -10 1 -5 -10 4 -11 3 -15 -4 -11 -7 5 -9 0 -6 -13 3 -12 0 -20 -8
-20 -7 0 -9 -3 -6 -7 4 -3 0 -17 -9 -31 -9 -13 -11 -21 -5 -18 7 5 9 1 5 -8
-3 -9 -10 -14 -14 -11 -5 3 -6 -5 -2 -17 4 -15 2 -19 -7 -13 -10 6 -11 3 -2
-14 10 -17 9 -22 -4 -27 -12 -5 -13 -9 -4 -20 9 -12 9 -13 -4 -8 -19 7 -17
-24 3 -36 10 -6 8 -9 -6 -13 -17 -4 -17 -5 -1 -6 10 0 15 -5 12 -11 -3 -5 -2
-10 3 -10 10 0 34 -106 29 -130 -1 -8 -7 -21 -11 -29 -6 -9 -5 -12 2 -8 6 5 8
0 5 -12 -3 -11 -10 -18 -16 -17 -7 2 -9 1 -4 -2 4 -2 12 -13 18 -24 9 -17 9
-20 -4 -15 -11 4 -13 0 -9 -16 2 -12 9 -28 15 -35 6 -8 6 -12 -2 -12 -7 0 -6
-9 5 -25 9 -14 13 -25 10 -25 -4 0 -2 -8 3 -18 7 -13 6 -23 -1 -30 -9 -9 -9
-12 1 -12 7 0 10 -4 6 -9 -3 -5 -2 -12 2 -14 5 -3 8 -33 8 -66 0 -34 3 -61 6
-61 8 0 4 -135 -6 -182 -4 -21 -11 -35 -16 -32 -5 3 -9 0 -9 -6 0 -7 -7 -10
-15 -6 -8 3 -14 2 -14 -2 1 -4 1 -14 0 -22 -1 -13 -2 -13 -11 0 -8 12 -10 12
-10 1 0 -8 -7 -11 -20 -8 -10 3 -24 -1 -31 -9 -6 -8 -8 -14 -3 -14 4 0 -1 -7
-12 -16 -10 -8 -14 -13 -7 -10 6 4 14 2 18 -4 3 -5 -1 -10 -10 -10 -9 0 -13
-5 -10 -10 4 -6 11 -8 16 -5 5 4 9 2 9 -4 0 -6 7 -7 17 -4 12 5 14 3 8 -8 -8
-12 -6 -12 8 0 11 8 17 9 17 3 0 -6 7 -9 15 -6 8 3 19 2 26 -2 7 -4 37 -7 68
-8 31 0 59 -5 63 -11 5 -6 8 -4 8 5 0 13 1 13 10 0 9 -13 10 -13 10 0 0 13 1
13 11 0 8 -11 12 -12 16 -2 2 6 11 12 19 12 9 0 12 -5 8 -12 -4 -8 -3 -10 2
-5 5 5 9 14 9 20 1 7 6 11 13 9 7 -1 12 2 12 6 0 4 9 8 20 9 11 1 20 -4 20
-10 0 -7 4 -6 10 3 9 13 10 13 10 0 0 -13 1 -13 10 0 6 9 10 11 10 3 0 -7 6
-10 13 -7 7 2 29 6 49 7 29 3 35 0 31 -12 -4 -14 -3 -14 9 -1 7 9 25 14 42 12
20 -3 26 0 21 9 -6 9 -4 9 6 3 21 -13 90 -14 82 0 -4 6 1 5 10 -2 9 -8 21 -11
27 -7 5 3 10 2 10 -4 0 -6 7 -8 15 -5 11 5 13 2 8 -12 -5 -13 -3 -15 7 -9 10
6 12 2 8 -19 -3 -14 -1 -29 5 -33 6 -4 7 -1 2 7 -6 9 -4 11 4 6 7 -5 10 -14 7
-22 -3 -8 1 -14 9 -14 8 0 15 -5 15 -11 0 -8 5 -8 15 1 10 8 15 9 15 2 0 -7 7
-9 17 -5 10 4 14 2 10 -4 -4 -7 3 -10 18 -9 14 0 25 5 25 10 0 6 7 1 15 -10
15 -19 15 -19 8 1 -6 19 -6 19 13 3 16 -14 23 -15 32 -6 9 9 12 9 12 -3 0 -12
2 -12 10 1 8 12 10 12 10 1 0 -11 3 -11 15 -1 8 7 15 9 15 4 0 -5 8 0 17 11
13 16 15 17 10 3 -7 -20 8 -25 16 -5 2 6 4 30 3 52 -1 37 1 41 26 42 15 0 26
-2 24 -6 -3 -4 4 -7 14 -7 10 0 16 5 12 11 -3 5 6 2 21 -8 17 -11 27 -13 27
-6 0 7 8 5 20 -6 14 -13 20 -14 20 -5 0 9 5 7 16 -6 8 -10 13 -13 9 -6 -3 6
-1 12 4 12 6 0 11 -4 11 -10 0 -5 5 -10 11 -10 5 0 7 4 4 10 -3 6 1 7 9 4 9
-3 13 -11 10 -16 -5 -7 -1 -7 12 0 14 8 25 5 48 -11 16 -11 26 -16 22 -9 -9
15 6 16 22 0 9 -9 13 -7 18 5 6 17 25 24 23 10 -3 -21 3 -24 18 -12 14 12 15
12 9 1 -7 -11 -4 -12 11 -4 23 13 49 42 37 42 -4 0 1 7 12 15 14 11 15 14 4
15 -13 0 -13 1 0 10 9 6 10 10 3 10 -6 0 -10 9 -8 20 2 13 -2 20 -11 20 -8 0
-14 4 -14 10 0 5 -7 6 -17 3 -10 -4 -14 -2 -9 5 4 7 -1 10 -14 7 -11 -2 -20 0
-20 6 0 5 -12 9 -26 9 -16 0 -23 4 -18 11 4 8 -1 9 -16 4 -15 -5 -20 -4 -16 4
5 7 1 9 -8 5 -9 -3 -16 -1 -16 5 0 6 -3 10 -7 10 -20 -3 -34 2 -28 11 3 6 -1
10 -9 10 -16 0 -19 7 -19 43 0 9 -3 17 -6 17 -4 0 -7 27 -8 60 0 37 3 60 10
60 6 0 2 7 -9 15 -14 11 -16 15 -4 15 12 1 11 3 -3 14 -17 13 -17 14 -1 18 17
3 17 4 0 21 -10 9 -13 17 -7 17 5 0 -13 22 -41 50 -28 28 -55 50 -60 50 -5 0
-4 9 2 20 8 16 8 18 -4 14 -8 -3 -17 0 -22 7 -4 8 -3 10 5 5 8 -6 8 -1 -1 18
-6 15 -13 24 -16 22 -6 -7 -32 20 -32 33 0 6 -5 11 -11 11 -5 0 -7 5 -4 10 3
6 2 10 -4 10 -13 0 -42 55 -34 64 4 3 1 6 -5 6 -7 0 -12 5 -12 11 0 5 6 7 13
4 6 -4 3 1 -7 9 -13 10 -15 16 -7 16 11 0 11 3 1 15 -7 8 -10 22 -6 30 3 9 0
15 -9 15 -13 0 -20 25 -16 52 0 5 -3 8 -7 8 -5 0 -9 7 -9 15 0 8 5 15 11 15 5
0 1 7 -10 15 -10 8 -14 15 -9 15 6 0 9 20 6 48 -3 37 -10 53 -35 76 -17 16
-24 26 -16 22 9 -5 9 -2 -2 7 -10 8 -15 17 -11 20 3 4 -1 7 -10 7 -10 0 -17 4
-17 10 0 5 8 7 18 3 11 -3 9 0 -6 11 -12 10 -20 22 -17 27 4 5 1 9 -5 9 -6 0
-8 5 -5 10 3 6 1 10 -4 10 -6 0 -11 9 -11 20 0 11 -4 20 -10 20 -5 0 -9 3 -9
8 3 20 -2 32 -12 26 -6 -3 -3 6 7 22 11 15 13 25 7 21 -7 -5 -13 -4 -13 2 0 6
4 11 10 11 5 0 6 7 3 17 -4 9 -2 14 3 10 5 -3 11 6 12 21 1 15 7 29 13 30 6 3
5 10 -3 20 -11 13 -10 15 4 9 19 -7 21 12 3 25 -6 5 -3 8 7 8 12 0 16 5 12 18
-5 14 -4 14 4 2 6 -8 9 -17 7 -20 -2 -4 2 -7 10 -7 8 0 11 5 8 11 -4 6 1 5 10
-3 16 -12 22 -8 18 12 -1 5 4 7 10 5 11 -4 43 19 91 65 10 10 23 15 28 12 5
-3 7 1 4 9 -3 9 3 19 16 26 11 6 18 15 15 20 -3 5 3 13 12 19 10 6 14 11 9 11
-6 0 -1 7 10 15 11 8 14 15 7 15 -7 0 -13 5 -13 11 0 5 4 8 8 5 5 -3 9 1 9 9
0 8 -4 15 -9 15 -4 0 -8 5 -8 11 0 5 6 7 13 3 8 -5 8 -3 -2 9 -7 9 -18 14 -24
10 -6 -3 -7 -1 -3 6 5 7 -1 20 -13 30 -11 10 -19 20 -17 22 2 2 -12 18 -30 36
-19 18 -34 30 -34 28 0 -3 -17 11 -37 30 -20 19 -45 35 -55 35 -10 0 -18 5
-18 11 0 5 -4 8 -9 5 -4 -3 -16 3 -25 13 -13 14 -28 18 -56 16 -42 -3 -140 14
-140 24 0 4 -10 8 -22 8 -13 1 -24 7 -26 12 -2 5 -10 7 -17 5 -8 -3 -19 -3
-25 1 -12 7 -143 12 -210 8z"/>
<path d="M556 1578 c3 -5 10 -6 15 -3 13 9 11 12 -6 12 -8 0 -12 -4 -9 -9z"/>
</g>
</svg>
